<svg width="480" height="480" viewBox="0 0 480 480" fill="none" xmlns="http://www.w3.org/2000/svg">
<g transform="translate(56 0)">
<path fill-rule="evenodd" clip-rule="evenodd" d="M101.999 249.143L0.333381 372.503C0.400196 377.675 0.479783 382.832 0.573973 387.97C0.730621 418.352 0.643679 448.736 0.312395 479.118C19.4279 478.953 38.5435 478.953 57.659 479.118C63.0468 472.847 71.5867 461.038 78.9172 450.901C82.1423 446.441 85.1333 442.305 87.5188 439.107L154.27 348.594C165.641 332.467 177.596 316.38 189.532 300.319C197.813 289.176 206.085 278.045 214.147 266.922L317.872 126.196C324.019 117.901 330.315 109.585 336.622 101.252C347.016 87.5219 357.444 73.7464 367.3 59.944L239.651 59.9628L150.346 183.008L119.456 225.486C118.056 227.409 116.546 229.526 114.977 231.725C110.72 237.693 106.037 244.258 101.999 249.143Z" fill="url(#paint0_linear_icon)"/>
<path d="M101.738 0.206447C67.9438 -0.0431814 34.1476 -0.0664332 0.352869 0.136718C-0.432619 69.2979 0.339377 139.866 0.333381 209.123C0.328593 262.883 -0.363293 318.567 0.333381 372.503L101.999 249.143C102.498 219.848 101.728 188.632 101.721 159.28L101.738 0.206447Z" fill="url(#paint1_linear_icon)"/>
<path d="M154.27 348.594C173.53 321.278 194.467 294.077 214.147 266.922L313.642 403.956L348.865 452.622C354.173 459.982 362.891 471.347 367.381 478.775C332.101 479.841 296.307 478.458 260.981 478.998C255.66 479.079 249.997 479.088 244.69 478.882C233.058 462.527 221.983 445.468 210.406 428.973C191.71 402.334 172.179 375.728 154.27 348.594Z" fill="#FB8402"/>
</g>
<defs>
<linearGradient id="paint0_linear_icon" x1="183.65" y1="0" x2="183.65" y2="479.118" gradientUnits="userSpaceOnUse">
<stop stop-color="#003293"/>
<stop offset="1" stop-color="#0C2B65"/>
</linearGradient>
<linearGradient id="paint1_linear_icon" x1="183.65" y1="0" x2="183.65" y2="479.118" gradientUnits="userSpaceOnUse">
<stop stop-color="#003293"/>
<stop offset="1" stop-color="#0E131B"/>
</linearGradient>
</defs>
</svg>
