<svg width="368" height="480" viewBox="0 0 368 480" fill="none" xmlns="http://www.w3.org/2000/svg">
<path fill-rule="evenodd" clip-rule="evenodd" d="M101.999 249.143L0.333381 372.503C0.400196 377.675 0.479783 382.832 0.573973 387.97C0.730621 418.352 0.643679 448.736 0.312395 479.118C19.4279 478.953 38.5435 478.953 57.659 479.118C63.0468 472.847 71.5867 461.038 78.9172 450.901C82.1423 446.441 85.1333 442.305 87.5188 439.107L154.27 348.594C165.641 332.467 177.596 316.38 189.532 300.319C197.813 289.176 206.085 278.045 214.147 266.922L317.872 126.196C324.019 117.901 330.315 109.585 336.622 101.252C347.016 87.5219 357.444 73.7464 367.3 59.944L239.651 59.9628L150.346 183.008L119.456 225.486C118.056 227.409 116.546 229.526 114.977 231.725C110.72 237.693 106.037 244.258 101.999 249.143Z" fill="white"/>
<path d="M101.738 0.206447C67.9438 -0.0431814 34.1476 -0.0664332 0.352869 0.136718C-0.432619 69.2979 0.339377 139.866 0.333381 209.123C0.328593 262.883 -0.363293 318.567 0.333381 372.503L101.999 249.143C102.498 219.848 101.728 188.632 101.721 159.28L101.738 0.206447Z" fill="white"/>
<path d="M154.072 348.385C173.332 321.069 194.269 293.868 213.949 266.713L313.444 403.747L348.667 452.413C353.975 459.773 362.693 471.138 367.183 478.566C331.903 479.632 296.109 478.249 260.783 478.789C255.462 478.87 249.799 478.879 244.492 478.673C232.86 462.318 221.785 445.259 210.208 428.764C191.512 402.125 171.981 375.519 154.072 348.385Z" fill="#FFE1B2"/>
</svg>
