<svg width="1535" height="906" viewBox="0 0 1535 906" fill="none" xmlns="http://www.w3.org/2000/svg">
<path fill-rule="evenodd" clip-rule="evenodd" d="M246.801 461.933L145.135 585.293C145.202 590.466 145.282 595.623 145.376 600.76C145.533 631.143 145.446 661.527 145.114 691.908C164.23 691.744 183.345 691.744 202.461 691.908C207.849 685.638 216.389 673.829 223.719 663.692C226.944 659.232 229.935 655.096 232.321 651.897L299.072 561.385C310.443 545.258 322.398 529.171 334.334 513.11C342.615 501.967 350.887 490.836 358.949 479.713L462.674 338.987C468.821 330.691 475.117 322.376 481.424 314.043C491.818 300.313 502.246 286.537 512.102 272.735L384.453 272.754L295.148 395.799L264.258 438.277C262.858 440.199 261.348 442.317 259.779 444.516C255.522 450.484 250.839 457.049 246.801 461.933Z" fill="url(#paint0_linear_2099_4474)"/>
<path d="M246.54 212.997C212.746 212.748 178.95 212.724 145.155 212.928C144.369 282.089 145.141 352.657 145.135 421.913C145.131 475.674 144.439 531.357 145.135 585.293L246.801 461.933C247.3 432.638 246.53 401.423 246.523 372.07L246.54 212.997Z" fill="url(#paint1_linear_2099_4474)"/>
<path d="M899.002 426.134C959.315 425.012 995.854 464.557 1003.06 523.472C1012.9 604.051 966.548 676.626 877.678 659.849C860.155 656.54 842.039 647.597 831.801 632.196C832.318 654.954 831.883 679.494 831.906 702.391C831.951 714.92 831.906 727.449 831.778 739.978L762.426 740.027C763.423 706.237 762.591 668.278 762.591 634.226L762.621 431.234L831.92 431.219C831.995 440.345 831.928 449.472 831.726 458.596C847.705 434.059 871.75 427.726 899.002 426.134ZM892.564 603.999C930.751 595.174 939.333 558.925 931.823 524.529C925.422 495.224 903.147 481.075 873.766 484.481C834.506 491.986 826.779 529.505 832.962 563.845C838.284 593.392 863.685 607.925 892.564 603.999Z" fill="#003293"/>
<path d="M609.739 426.138C641.488 424.15 682.463 436.807 705.484 459.254C750.366 503.018 750.591 582.433 706.547 626.913C682.373 651.326 649.818 661.59 616.051 662.042C546.142 662.582 491.048 624.42 485.883 550.877C482.308 499.983 511.686 453.994 559.291 435.944C576.961 429.244 590.816 427.153 609.739 426.138ZM621.982 603.961C630.802 602.106 637.337 599.913 644.469 594.095C657.08 583.807 662.822 569.256 664.329 553.435C668.079 514.047 647.777 480.093 604.265 484.438C565.254 490.763 555.575 527.235 561.312 561.301C566.805 593.92 590.705 607.745 621.982 603.961Z" fill="#003293"/>
<path d="M1281.62 426.118C1307.73 425.303 1339.78 431.686 1358.75 450.846C1388.82 481.219 1383.62 530.587 1383.57 569.919V657.98C1362.1 657.849 1340.63 657.831 1319.16 657.926L1319.13 634.474C1316.11 637.825 1312.85 640.95 1309.38 643.823C1289.2 660.299 1263.76 664.119 1238.55 661.35C1216.02 658.873 1198.73 651.781 1184.22 633.742C1176.4 621.912 1172.58 609.256 1173.02 595.017C1173.51 577.73 1180.92 561.365 1193.59 549.596C1224.33 520.993 1275.29 521.137 1314.22 522.634C1313.69 503.631 1308.28 490.282 1287.92 485.817C1260.06 479.706 1229.71 489.043 1205.84 503.494C1201.48 487.902 1194.02 467.996 1188.66 452.442C1216.38 434.907 1249.28 427.852 1281.62 426.118ZM1267.96 615.401C1294 615.839 1314.93 606.643 1314.17 577.621C1314.06 573.349 1314.08 567.656 1314.25 563.352C1307.31 563.042 1297.62 562.808 1290.7 563.294C1276.46 564.124 1259.67 564.685 1249.44 576.431C1245.1 581.359 1243 587.852 1243.6 594.384C1244.86 608.253 1255.78 613.315 1267.96 615.401Z" fill="#003293"/>
<path d="M1145.21 427.619C1152.35 427.02 1160.79 428.438 1167.81 429.858L1167.81 497.264C1145.88 490.373 1122.08 489.448 1104.53 506.768C1097.7 513.645 1092.95 522.312 1090.83 531.77C1088.11 543.846 1089.03 568.59 1089.03 581.928L1089 658.012C1079.65 657.549 1021.73 658.655 1019.08 657.142L1018.9 654.618L1018.83 431.602C1036.18 430.321 1070.42 430.981 1088.41 431.44C1088.61 442.679 1088.41 454.592 1088.39 465.88C1101.83 441.968 1117.42 429.777 1145.21 427.619Z" fill="#003293"/>
<path d="M299.072 561.385C318.332 534.069 339.269 506.868 358.949 479.713L458.444 616.747L493.667 665.413C498.975 672.773 507.693 684.138 512.183 691.566C476.903 692.632 441.109 691.249 405.783 691.789C400.462 691.87 394.799 691.879 389.492 691.673C377.86 675.318 366.785 658.259 355.208 641.764C336.512 615.125 316.981 588.519 299.072 561.385Z" fill="#FB8402"/>
<defs>
<linearGradient id="paint0_linear_2099_4474" x1="328.452" y1="212.791" x2="328.452" y2="691.908" gradientUnits="userSpaceOnUse">
<stop stop-color="#003293"/>
<stop offset="1" stop-color="#0C2B65"/>
</linearGradient>
<linearGradient id="paint1_linear_2099_4474" x1="328.452" y1="212.791" x2="328.452" y2="691.908" gradientUnits="userSpaceOnUse">
<stop stop-color="#003293"/>
<stop offset="1" stop-color="#0E131B"/>
</linearGradient>
</defs>
</svg>
